<svg
    xmlns="http://www.w3.org/2000/svg" data-name="Ebene 2" viewBox="0 0 32 32" x="0px" y="0px">
    <defs>
        <style>.cls-1{fill:#1d1d1b;}</style>
    </defs>
    <path class="cls-1" d="M17,16.5H15a.5.5,0,0,0,0,1h2a.5.5,0,0,0,0-1Z"/>
    <path class="cls-1" d="M30.5,20a1,1,0,0,0-.73.33l-6.28-1.73a2.23,2.23,0,0,0-.65-1.45,2.25,2.25,0,0,0-2.43-.5L19.86,15a2.23,2.23,0,0,0,3.62-1.6L29.8,11.7a1,1,0,1,0-.24-1l-6.22,1.68a2.24,2.24,0,0,0-4.27.32.48.48,0,0,0-.4-.24H13.33a.48.48,0,0,0-.4.24,2.24,2.24,0,0,0-4.28-.3l-6.21-1.7A1,1,0,0,0,1.5,10a1,1,0,1,0,.7,1.71l6.32,1.73A2.23,2.23,0,0,0,12.14,15l-.55,1.65a2.25,2.25,0,0,0-2.43.5,2.23,2.23,0,0,0-.64,1.42l-6.3,1.73a1,1,0,1,0,.22,1l6.22-1.71a2.24,2.24,0,0,0,4.13.11l.1.2a.5.5,0,0,0,.45.28h5.33a.5.5,0,0,0,.45-.28l.1-.2a2.25,2.25,0,0,0,4.12-.09l6.23,1.72a1,1,0,0,0,.94.68,1,1,0,0,0,0-2ZM31,11Zm-9.74,1A1.25,1.25,0,1,1,20,13.25,1.25,1.25,0,0,1,21.25,12Zm-4.06,1.5-.5,1H15.31l-.5-1Zm-6.44,1A1.25,1.25,0,1,1,12,13.25,1.25,1.25,0,0,1,10.75,14.5Zm.88,5.13a1.25,1.25,0,1,1,.37-.88A1.25,1.25,0,0,1,11.63,19.63Zm6.72-.47H13.64L12.54,17l1.15-3.46.86,1.72a.5.5,0,0,0,.45.28h2a.5.5,0,0,0,.45-.28l.86-1.72L19.46,17Zm3.78.47a1.25,1.25,0,1,1,.37-.88A1.25,1.25,0,0,1,22.13,19.63ZM30.76,21h0Z"/>
    <path class="cls-1" d="M10.75,12.37a.88.88,0,1,0,.88.88A.88.88,0,0,0,10.75,12.37Z"/>
    <path class="cls-1" d="M10.75,17.87a.88.88,0,1,0,.88.88A.88.88,0,0,0,10.75,17.87Z"/>
    <path class="cls-1" d="M21.25,17.87a.88.88,0,1,0,.88.88A.88.88,0,0,0,21.25,17.87Z"/>
    <path class="cls-1" d="M21.25,14.13a.88.88,0,1,0-.88-.88A.88.88,0,0,0,21.25,14.13Z"/>
</svg>
