<svg
    xmlns="http://www.w3.org/2000/svg"
    xmlns:xlink="http://www.w3.org/1999/xlink" version="1.1" x="0px" y="0px" viewBox="0 0 100 125" enable-background="new 0 0 100 100" xml:space="preserve">
    <g>
        <path d="M85.25,22.04C77.02,11.66,64.28,5,50,5C25.15,5,5,25.15,5,50c0,24.85,20.15,45,45,45c16.35,0,30.66-8.72,38.53-21.76   C92.64,66.46,95,58.5,95,50C95,39.44,91.36,29.72,85.25,22.04z M86.34,71.05C79.05,83.57,65.49,92,50,92C26.84,92,8,73.16,8,50   C8,26.84,26.84,8,50,8c13.43,0,25.42,6.34,33.1,16.19C88.68,31.31,92,40.27,92,50C92,57.67,89.94,64.86,86.34,71.05z"/>
        <path d="M49.112,26.979c-0.52-0.249-1.14-0.176-1.59,0.188L31.375,40.25H19.573c-0.828,0-1.5,0.672-1.5,1.5v16.5   c0,0.828,0.672,1.5,1.5,1.5h11.802l16.147,13.082c0.272,0.221,0.607,0.335,0.944,0.335c0.22,0,0.44-0.048,0.646-0.146   c0.522-0.248,0.854-0.775,0.854-1.354V28.333C49.967,27.755,49.635,27.228,49.112,26.979z M30.404,56.75h-9.331v-13.5h9.331V56.75z    M46.967,68.521L33.406,57.535v-15.07l13.561-10.986V68.521z"/>
    </g>
</svg>
